<?xml version="1.0" encoding="UTF-8"?>
<svg width="139px" height="28px" viewBox="0 0 139 28" version="1.1" xmlns="http://www.w3.org/2000/svg" xmlns:xlink="http://www.w3.org/1999/xlink">
    <!-- Generator: Sketch 50.2 (55047) - http://www.bohemiancoding.com/sketch -->
    <title>td-logo</title>
    <desc>Created with Sketch.</desc>
    <defs></defs>
    <g id="Page-1" stroke="none" stroke-width="1" fill="none" fill-rule="evenodd">
        <g id="Header-Specs-Copy-2" transform="translate(-81.000000, -517.000000)" fill-rule="nonzero">
            <g id="td-logo" transform="translate(81.000000, 517.000000)">
                <g id="Ameritrade" transform="translate(37.352423, 4.473265)" fill="#173029">
                    <path d="M87.2781204,12.2201463 L87.2781204,10.6951696 C86.6861965,11.97615 85.9105724,12.3828104 84.543025,12.3828104 C81.9099854,12.3828104 80.8894276,10.2681762 80.8894276,7.88921255 C80.8894276,5.59158107 81.9099854,3.63961095 84.4613801,3.63961095 C85.5635829,3.63961095 86.339207,3.98527233 87.0127753,4.92059135 L87.0127753,0.162664177 L91.0337737,0.162664177 L91.0337737,12.2201463 L87.2781204,12.2201463 Z M86.0942732,6.20157173 C85.2370041,6.20157173 85.0737154,7.05555864 85.0737154,7.88921255 C85.0737154,8.72286651 85.2370041,9.67851855 86.0942732,9.67851855 C86.9515417,9.67851855 87.1148311,8.74319952 87.1148311,7.99087767 C87.1148311,7.05555864 86.9515417,6.20157173 86.0942732,6.20157173 Z" id="Shape"></path>
                    <path d="M4.06182085,1.0166511 L10.0218796,1.0166511 L14.0224669,12.1388142 L9.51160057,12.1388142 L8.73597648,9.7598506 L5.08237885,9.7598506 L4.40881057,12.2201463 L0.14287812,12.2201463 L4.06182085,1.0166511 Z M5.6743025,7.13689076 L8.14405287,7.13689076 L6.96020558,3.4972798 L5.6743025,7.13689076 Z" id="Shape"></path>
                    <path d="M14.6143906,3.90394024 L18.4516887,3.90394024 L18.4516887,5.34758481 C18.9619677,4.16826953 20.0641703,3.74127607 21.2684288,3.74127607 C22.3706314,3.74127607 23.5748899,4.16826953 23.9014684,5.18492064 C24.1668135,4.24960162 25.5955947,3.74127607 26.5345081,3.74127607 C29.5145374,3.74127607 29.5145374,5.6119141 29.5145374,7.29955492 L29.5145374,12.3014784 L25.51395,12.3014784 L25.51395,7.5435512 C25.51395,7.03522563 25.51395,6.44556801 24.8403818,6.44556801 C24.1668135,6.44556801 24.1668135,7.11655774 24.1668135,7.5435512 L24.1668135,12.3014784 L20.1662261,12.3014784 L20.1662261,7.5435512 C20.1662261,7.03522563 20.1662261,6.44556801 19.4926579,6.44556801 C18.8190896,6.44556801 18.8190896,7.11655774 18.8190896,7.5435512 L18.8190896,12.3014784 L14.6348018,12.3014784 L14.6348018,3.90394024 L14.6143906,3.90394024 Z" id="Shape"></path>
                    <path d="M34.556094,9.00752881 C34.6377386,10.0241799 35.576652,10.2885092 36.7809104,10.2885092 C37.8831131,10.2885092 38.9036711,10.125845 39.5160059,9.78018361 L39.5160059,11.8948179 C38.4138032,12.2404793 37.1279002,12.4031435 35.7603524,12.4031435 C32.3516887,12.4031435 30.5555066,10.7968348 30.5555066,7.90954562 C30.5555066,5.10358855 32.3516887,3.65994398 35.7603524,3.65994398 C39.0057268,3.65994398 40.1079295,5.69324619 40.1079295,8.49920324 L40.1079295,9.00752881 L34.556094,9.00752881 Z M36.6788546,7.29955492 C36.6788546,6.62856519 36.59721,5.69324619 35.6582966,5.69324619 C34.7193833,5.69324619 34.556094,6.7098973 34.556094,7.29955492 L36.6788546,7.29955492 Z" id="Shape"></path>
                    <path d="M45.0270191,3.90394024 L45.0270191,5.77457828 C45.5372981,4.595263 46.3129222,3.74127607 47.5784141,3.74127607 C47.8437592,3.74127607 48.0886931,3.74127607 48.2519824,3.82260816 L48.2519824,7.13689076 C48.0886931,7.05555864 47.7417034,7.05555864 47.313069,7.05555864 C46.2108664,7.05555864 45.271953,7.99087767 45.271953,9.2718581 L45.271953,12.3218114 L41.2713656,12.3218114 L41.2713656,4.00560535 L45.0270191,4.00560535 L45.0270191,3.90394024 Z" id="Shape"></path>
                    <path d="M53.4568282,2.96862122 L49.4562408,2.96862122 L49.4562408,0.162664177 L53.4568282,0.162664177 L53.4568282,2.96862122 Z M49.4562408,3.90394024 L53.4568282,3.90394024 L53.4568282,12.2201463 L49.4562408,12.2201463 L49.4562408,3.90394024 Z" id="Shape"></path>
                    <path d="M55.9265786,3.90394024 L55.9265786,1.95197012 L59.9271658,0.772654838 L59.9271658,3.90394024 L61.7233477,3.90394024 L61.7233477,6.28290384 L59.9271658,6.28290384 L59.9271658,8.66186741 C59.9271658,9.33285714 60.2741559,9.7598506 60.7844348,9.7598506 C61.1314244,9.7598506 61.4580032,9.67851855 61.7233477,9.59718643 L61.7233477,11.97615 C60.8660792,12.2404793 59.9271658,12.4031435 58.9066079,12.4031435 C56.8654919,12.4031435 55.8449339,11.3864924 55.8449339,9.17019298 L55.8449339,6.28290384 L54.3957416,6.28290384 L54.3957416,3.90394024 L55.9265786,3.90394024 Z" id="Shape"></path>
                    <path d="M66.7649046,3.90394024 L66.7649046,5.77457828 C67.2751835,4.595263 68.0508076,3.74127607 69.3162998,3.74127607 C69.5816444,3.74127607 69.8265787,3.74127607 69.9898681,3.82260816 L69.9898681,7.13689076 C69.8265787,7.05555864 69.4795886,7.05555864 69.0509547,7.05555864 C67.9487518,7.05555864 67.0098384,7.99087767 67.0098384,9.2718581 L67.0098384,12.3218114 L63.0092513,12.3218114 L63.0092513,4.00560535 L66.7649046,4.00560535 L66.7649046,3.90394024 Z" id="Shape"></path>
                    <path d="M71.3574155,4.16826953 C72.5412628,3.82260816 73.3168869,3.65994398 74.8477242,3.65994398 C77.1541851,3.65994398 79.9505141,4.08693744 79.9505141,7.13689076 L79.9505141,12.2201463 L76.1948602,12.2201463 L76.1948602,11.040831 C75.6029369,11.97615 74.5823791,12.4031435 73.4597648,12.4031435 C71.9289281,12.4031435 70.3980913,11.7321537 70.3980913,9.94284778 C70.3980913,7.40122005 72.7045521,6.89289448 74.7456679,6.89289448 C75.3375918,6.89289448 75.9295157,6.97422659 76.2765052,6.97422659 C76.2765052,5.8762434 75.1743024,5.7949113 74.1537445,5.7949113 C73.2148311,5.7949113 72.1942732,6.14057269 71.3370041,6.46590102 L71.3574155,4.16826953 Z M76.2152716,8.58053535 L75.7866371,8.58053535 C74.9293686,8.58053535 73.9904552,8.66186741 73.9904552,9.51585432 C73.9904552,10.105512 74.3374447,10.2885092 74.9293686,10.2885092 C75.7866371,10.2885092 76.2152716,9.51585432 76.2152716,8.76353253 L76.2152716,8.58053535 Z" id="Shape"></path>
                    <path d="M95.9732748,9.00752881 C96.0549192,10.0241799 96.9938326,10.2885092 98.1980913,10.2885092 C99.3002935,10.2885092 100.320852,10.125845 100.933187,9.78018361 L100.933187,11.8948179 C99.8309838,12.2404793 98.5450808,12.4031435 97.1775328,12.4031435 C93.7688691,12.4031435 91.9726872,10.7968348 91.9726872,7.90954562 C91.9726872,5.10358855 93.7688691,3.74127607 97.1775328,3.74127607 C100.422908,3.74127607 101.52511,5.77457828 101.52511,8.58053535 L101.52511,9.08886086 L95.9936856,9.08886086 L95.9936856,9.00752881 L95.9732748,9.00752881 Z M98.1164463,7.21822287 C98.1164463,6.54723313 98.0348019,5.6119141 97.0958884,5.6119141 C96.156975,5.6119141 95.9936856,6.62856519 95.9936856,7.21822287 L98.1164463,7.21822287 Z" id="Shape"></path>
                </g>
                <g id="TD">
                    <polygon id="Shape" fill="#3FAE49" points="0 0.060999066 0 0.060999066 30.5759178 0.060999066 30.5759178 27.3885808 0 27.3885808"></polygon>
                    <path d="M20.1049926,21.4513383 C24.1872247,21.4513383 27.2693099,20.5973514 27.2693099,13.2977965 C27.2693099,7.78754748 25.2281938,5.57124806 20.9622614,5.57124806 L3.24537445,5.57124806 L3.24537445,7.86887953 L8.45022028,7.86887953 L8.45022028,21.5326704 L11.9405286,21.5326704 L11.9405286,7.78754748 L19.7784141,7.78754748 C22.1665198,7.78754748 23.3503671,9.06852785 23.3503671,13.2977965 C23.3503671,17.5270651 22.3298091,19.1537068 19.9417034,19.1537068 L16.5330396,19.1537068 L16.5330396,8.62120138 L12.9610867,8.62120138 L12.9610867,21.4310053 L20.1049926,21.4513383 Z" id="Shape" fill="#FFFFFF"></path>
                </g>
            </g>
        </g>
    </g>
</svg>